<svg version="1.0" xmlns="http://www.w3.org/2000/svg" width="1104" height="1706.667" viewBox="0 0 828 1280"><path d="M402.6 5.9c-1 1.5-1 18 0 34.2l.6 10.7-2.8 1.3c-2.5 1.2-2.9 2.1-3.2 6.2-.3 3.9-.8 5.1-3.2 6.9-2.3 1.7-3.1 3.2-3.6 7-.5 3.6-1.5 5.6-4.1 8.3-2.8 2.9-3.6 4.6-4 9-.3 3-1.2 6-1.9 6.6-.7.5-3.8 1.3-6.9 1.6-4.6.5-5.9 1.1-7.6 3.4-1.2 1.7-3.6 3.3-5.8 3.9-3.1.8-4 1.6-4.4 3.8-.3 1.5-.8 3.6-1.1 4.7-.4 1.1-.2 2.6.2 3.3 1.4 2 11 4.2 18.9 4.2 4.6 0 7.5.4 8 1.2.4.7.8 6.9.9 13.8.1 6.9.6 16.3 1.2 21 .6 5.2.8 15.4.4 26-.9 21.6-.8 36.7.2 87 .6 28.9.5 43.8-.4 55.5-.6 8.8-1.4 19.1-1.6 23-.4 8.1-2 30.3-3.5 48.5-.6 6.9-1.7 16.5-2.5 21.3-.8 4.8-1.3 9.1-1 9.5.4.6-.3 6.1-3.4 28.7-.5 3.8-1.4 8.6-2.1 10.5-.6 1.9-1.2 5.7-1.4 8.5-.1 2.7-1.2 9.5-2.4 15-1.1 5.5-3.2 15.2-4.5 21.5-1.3 6.3-3.6 16.4-5.1 22.5-1.4 6-3.9 18.2-5.5 27-1.7 8.8-3.7 18.2-4.5 21-.7 2.7-2.1 8.5-3 12.9-1.8 8.5-5.5 17.8-7.6 19.2-.8.5-5.7.9-10.9.9l-9.5.1-1.2 5.9c-1.5 7.6-.8 8.5 6.6 8.5 6.9 0 12.7 2.6 12.4 5.5-.8 8.3-5.2 22.8-13.3 44.5-1.7 4.7-4.4 12.3-6 17-3.3 9.6-5.7 15.9-12.3 31-14.3 33-17.8 40.3-20.6 43.5-1.7 1.9-2.8 4.1-2.5 5 .3.8-1.7 5.5-4.5 10.4-2.8 5-5.1 9.4-5.1 9.8 0 2-10.6 21.2-12 21.6-.8.2-7.5 0-14.8-.5-19.1-1.4-18-2.6-17.7 19.9.1 9.8-.2 18.8-.6 20-.7 1.8-1.6 2.3-4.2 2.3-3.9 0-7.7 2.4-6.2 3.8.6.5 4.8 1.7 9.5 2.6 4.7.9 8.8 2 9.1 2.4 1 1.1 2.9 7.3 2.9 9.5 0 2.1-5.4 13.7-8.9 19.2-1.1 1.6-2 3.7-2 4.6-.1.9-1 2.8-2.1 4.2-1.1 1.4-2 3-2 3.6 0 .6-1.3 3.2-2.9 5.8-4 6.6-18.5 34.4-28.2 54.3-4.5 9.1-8.9 17.4-9.8 18.5-1 1.1-7.1 13-13.6 26.5-19 39.4-26.6 52.6-30.9 53.4-8.8 1.7-16.6 2.7-25.4 3.2-5.6.4-11 1.2-11.9 1.9-2.2 1.7-1 10.1 1.8 11.5 1.6.9 1.9 2.2 1.9 7.8 0 4-.5 7.3-1.2 8-.9.9-13.2 1.2-49 1.2-26.3 0-47.8.2-47.8.5s14.7 20.1 32.6 44c21.8 29.1 32.5 44.1 32.2 45.2-.3 1-15.2 21.1-33.1 44.7-18 23.5-32.7 43-32.7 43.2 0 .2 45.2.4 100.5.4h100.4l.3-13.3.3-13.2h421l.3 13.2.3 13.3h101.1c80.7 0 100.8-.3 100-1.3-6.1-7.5-66.2-87.1-66.2-87.7 0-.3 14.8-20.4 32.9-44.6l33-43.9-48.7-.5c-26.8-.3-48.9-.6-49.1-.8-.2-.1-.1-6.2.2-13.6.6-13.3.6-13.3-1.9-15.7-2.5-2.4-2.9-2.4-21.8-2.4-21.3 0-22.6-.3-22.6-5.9 0-1.7-1-4.7-2.2-6.6-1.1-1.9-5-9.1-8.5-15.9-3.6-6.8-9.8-17.5-13.9-23.8-4.1-6.3-8.6-13.8-10.1-16.6-1.4-2.9-4.9-8.8-7.8-13.2-2.9-4.4-6.1-9.8-7.1-12-1-2.2-3-5.4-4.4-7.2-5.3-6.8-6.8-8.9-8.9-12.8-1.1-2.2-3.1-5.6-4.3-7.7-1.3-2-3.7-6-5.4-9-1.7-2.9-5-7.8-7.3-10.8-2.2-3-4.1-6.3-4.1-7.3s-.6-3.1-1.3-4.5c-4.5-9.1-6.4-12.4-10-18.2-2.3-3.6-6.1-9.2-8.5-12.4-5.7-7.9-5.5-10.5 1.1-12.4 5.8-1.6 6.8-3.5 3.6-6.5-2.3-2.1-2.4-2.5-1.9-14.8.3-7 .4-16.1.2-20.4-.4-7.6-.4-7.7-3.7-9.1-2.1-.9-9.3-1.6-19.7-2-9-.3-16.7-1-17.2-1.5-.9-.8-1.8-4-7.5-25.4-1.2-4.4-4.1-13.4-6.6-20-2.4-6.6-4.9-14-5.5-16.5-.6-2.5-1.6-6.3-2.2-8.5-.5-2.2-1.6-5.4-2.3-7-1.9-4.5-8.5-25.8-8.5-27.5 0-.8-.8-3.1-1.9-5-1-1.9-2.1-6-2.5-9-.4-3-1.6-8-2.7-11.2-1-3.2-1.9-7.1-1.9-8.7 0-1.7-.6-4.5-1.4-6.3-.8-1.8-2.5-7.1-3.7-11.8-1.3-4.7-3.1-9.7-4.1-11.2-2.4-3.5-2.4-10.3 0-11.4.9-.4 6.2-1 11.7-1.4 5.6-.3 11.3-1.2 13-2.1 2.9-1.4 3-1.6 2.7-7.4-.3-4.4-1-6.6-2.5-8.4-2.1-2.2-2.7-2.3-12-1.9-10.7.5-19.7-.9-22.7-3.7-2.3-2-4.5-11.1-8.5-34.7-.7-4.2-1.6-8.2-2-8.8-.4-.6-1.3-3.9-2-7.3-.8-3.4-2.8-12.5-4.6-20.2-3.7-16.5-5.3-25.8-7.4-42-.8-6.6-2.8-20.3-4.5-30.5-6.6-39.6-8.1-57.5-8.5-100.2-.2-16.9-.9-36.9-1.5-44.5-.8-8.2-1.1-22.6-.8-36.2.4-16.1.1-25.6-.8-33.1-.8-5.8-1.8-18.6-2.4-28.5-.5-9.9-1.2-23.4-1.6-30.1-.5-8-.3-12.7.4-14.1.7-1.3.8-2.3.1-3-1-1-3.3-56.8-2.4-58.4.4-.5 4.3-.9 8.8-.9 4.5 0 8.8-.4 9.5-.9 2.2-1.3.6-12.1-1.8-12.1-2.1 0-4.3-2.4-5.9-6.7-1.1-2.6-2.2-3.5-6.9-4.9-7.5-2.4-9.2-4.3-9.2-10.2 0-5.2-.4-6-4-8.3-1.8-1.2-2.7-3-3.5-7-.9-4.7-1.4-5.6-4.2-6.8-2.5-1.1-3.4-2.3-4.2-5.8-.7-2.4-.9-4.8-.6-5.3.4-.6-.5-1.5-2-2.2-3.2-1.4-3.2-1.7-4-22.3-.7-18.9-1.5-25.8-2.9-23.6zm25 681.3c2.3 1.8 5.8 12.3 11.3 34.3.4 1.6 1.7 6.1 2.8 10 1.2 3.8 2.7 10.4 3.6 14.5.8 4.1 3.3 15.1 5.5 24.5 2.3 9.3 4.6 19.7 5.1 23 .6 3.3 2 9.7 3 14.2 1.9 8.3 1.9 8.3-.2 10.9l-2.1 2.7-34.5-.7c-58.9-1.2-71.6-1.7-72.4-2.5-.8-.8 3.4-20.8 5.3-25.3.5-1.3 1.9-6.6 3.1-11.8 1.1-5.2 2.9-12.4 4-16 1-3.6 2.9-11.2 4.3-17 1.3-5.8 4-16.8 5.9-24.5 2-7.7 4.4-18.7 5.4-24.5 1.1-6.7 2.4-11.1 3.5-12.2 1.6-1.6 3.7-1.7 23.5-1.2 12 .4 22.3 1.1 22.9 1.6zm1.2 232.3c14.1 1.6 19.5 3.5 38.7 13.1 7.2 3.5 13.4 6.4 13.8 6.4 1.8 0 16.8 10.9 25.3 18.4 17.9 16 24 25.6 36.4 57.6 2.8 7.4 6.7 17.3 8.5 22 1.8 4.7 4.1 13.4 5.1 19.3 2.1 12.4 2 12.7-5.6 12.7-2.6 0-6.3.9-8.5 2-3.9 2-5.9 2-137.3 2-103.4 0-133.8-.3-135.5-1.2-3-1.7-12.3-3.7-17.7-3.7-2.5-.1-6.2-.4-8.2-.7-4.4-.8-4.9-2.8-2-8 .9-1.7 4.1-7.8 7-13.5 3-5.7 6.2-11.5 7.3-13 1-1.5 1.9-3 1.9-3.3 0-.3 2-3.5 4.5-7.2 2.5-3.6 4.5-6.8 4.5-7.2 0-.3 1.1-2.2 2.4-4.1 3.7-5.6 7.8-11.9 11.2-17.4 1.7-2.7 6.2-8.3 10-12.4 12.8-13.9 37.6-38.3 43.3-42.7 13.1-10 34.6-18.3 52.1-19.9 9.5-1 31.8-.5 42.8.8z"/></svg>