<?xml version="1.0" standalone="no"?>
<!DOCTYPE svg PUBLIC "-//W3C//DTD SVG 20010904//EN"
 "http://www.w3.org/TR/2001/REC-SVG-20010904/DTD/svg10.dtd">
<svg version="1.0" xmlns="http://www.w3.org/2000/svg"
 width="828.000000pt" height="1280.000000pt" viewBox="0 0 828.000000 1280.000000"
 preserveAspectRatio="xMidYMid meet">
<g transform="translate(0.000000,1280.000000) scale(0.100000,-0.100000)"
fill="#000000" stroke="none">
<path d="M4026 12741 c-10 -15 -10 -180 0 -342 l6 -107 -28 -13 c-25 -12 -29
-21 -32 -62 -3 -39 -8 -51 -32 -69 -23 -17 -31 -32 -36 -70 -5 -36 -15 -56
-41 -83 -28 -29 -36 -46 -40 -90 -3 -30 -12 -60 -19 -66 -7 -5 -38 -13 -69
-16 -46 -5 -59 -11 -76 -34 -12 -17 -36 -33 -58 -39 -31 -8 -40 -16 -44 -38
-3 -15 -8 -36 -11 -47 -4 -11 -2 -26 2 -33 14 -20 110 -42 189 -42 46 0 75 -4
80 -12 4 -7 8 -69 9 -138 1 -69 6 -163 12 -210 6 -52 8 -154 4 -260 -9 -216
-8 -367 2 -870 6 -289 5 -438 -4 -555 -6 -88 -14 -191 -16 -230 -4 -81 -20
-303 -35 -485 -6 -69 -17 -165 -25 -213 -8 -48 -13 -91 -10 -95 4 -6 -3 -61
-34 -287 -5 -38 -14 -86 -21 -105 -6 -19 -12 -57 -14 -85 -1 -27 -12 -95 -24
-150 -11 -55 -32 -152 -45 -215 -13 -63 -36 -164 -51 -225 -14 -60 -39 -182
-55 -270 -17 -88 -37 -182 -45 -210 -7 -27 -21 -85 -30 -129 -18 -85 -55 -178
-76 -192 -8 -5 -57 -9 -109 -9 l-95 -1 -12 -59 c-15 -76 -8 -85 66 -85 69 0
127 -26 124 -55 -8 -83 -52 -228 -133 -445 -17 -47 -44 -123 -60 -170 -33 -96
-57 -159 -123 -310 -143 -330 -178 -403 -206 -435 -17 -19 -28 -41 -25 -50 3
-8 -17 -55 -45 -104 -28 -50 -51 -94 -51 -98 0 -20 -106 -212 -120 -216 -8 -2
-75 0 -148 5 -191 14 -180 26 -177 -199 1 -98 -2 -188 -6 -200 -7 -18 -16 -23
-42 -23 -39 0 -77 -24 -62 -38 6 -5 48 -17 95 -26 47 -9 88 -20 91 -24 10 -11
29 -73 29 -95 0 -21 -54 -137 -89 -192 -11 -16 -20 -37 -20 -46 -1 -9 -10 -28
-21 -42 -11 -14 -20 -30 -20 -36 0 -6 -13 -32 -29 -58 -40 -66 -185 -344 -282
-543 -45 -91 -89 -174 -98 -185 -10 -11 -71 -130 -136 -265 -190 -394 -266
-526 -309 -534 -88 -17 -166 -27 -254 -32 -56 -4 -110 -12 -119 -19 -22 -17
-10 -101 18 -115 16 -9 19 -22 19 -78 0 -40 -5 -73 -12 -80 -9 -9 -132 -12
-490 -12 -263 0 -478 -2 -478 -5 0 -3 147 -201 326 -440 218 -291 325 -441
322 -452 -3 -10 -152 -211 -331 -447 -180 -235 -327 -430 -327 -432 0 -2 452
-4 1005 -4 l1004 0 3 133 3 132 2105 0 2105 0 3 -132 3 -133 1011 0 c807 0
1008 3 1000 13 -61 75 -662 871 -662 877 0 3 148 204 329 446 l330 439 -487 5
c-268 3 -489 6 -491 8 -2 1 -1 62 2 136 6 133 6 133 -19 157 -25 24 -29 24
-218 24 -213 0 -226 3 -226 59 0 17 -10 47 -22 66 -11 19 -50 91 -85 159 -36
68 -98 175 -139 238 -41 63 -86 138 -101 166 -14 29 -49 88 -78 132 -29 44
-61 98 -71 120 -10 22 -30 54 -44 72 -53 68 -68 89 -89 128 -11 22 -31 56 -43
77 -13 20 -37 60 -54 90 -17 29 -50 78 -73 108 -22 30 -41 63 -41 73 0 10 -6
31 -13 45 -45 91 -64 124 -100 182 -23 36 -61 92 -85 124 -57 79 -55 105 11
124 58 16 68 35 36 65 -23 21 -24 25 -19 148 3 70 4 161 2 204 -4 76 -4 77
-37 91 -21 9 -93 16 -197 20 -90 3 -167 10 -172 15 -9 8 -18 40 -75 254 -12
44 -41 134 -66 200 -24 66 -49 140 -55 165 -6 25 -16 63 -22 85 -5 22 -16 54
-23 70 -19 45 -85 258 -85 275 0 8 -8 31 -19 50 -10 19 -21 60 -25 90 -4 30
-16 80 -27 112 -10 32 -19 71 -19 87 0 17 -6 45 -14 63 -8 18 -25 71 -37 118
-13 47 -31 97 -41 112 -24 35 -24 103 0 114 9 4 62 10 117 14 56 3 113 12 130
21 29 14 30 16 27 74 -3 44 -10 66 -25 84 -21 22 -27 23 -120 19 -107 -5 -197
9 -227 37 -23 20 -45 111 -85 347 -7 42 -16 82 -20 88 -4 6 -13 39 -20 73 -8
34 -28 125 -46 202 -37 165 -53 258 -74 420 -8 66 -28 203 -45 305 -66 396
-81 575 -85 1002 -2 169 -9 369 -15 445 -8 82 -11 226 -8 362 4 161 1 256 -8
331 -8 58 -18 186 -24 285 -5 99 -12 234 -16 301 -5 80 -3 127 4 141 7 13 8
23 1 30 -10 10 -33 568 -24 584 4 5 43 9 88 9 45 0 88 4 95 9 22 13 6 121 -18
121 -21 0 -43 24 -59 67 -11 26 -22 35 -69 49 -75 24 -92 43 -92 102 0 52 -4
60 -40 83 -18 12 -27 30 -35 70 -9 47 -14 56 -42 68 -25 11 -34 23 -42 58 -7
24 -9 48 -6 53 4 6 -5 15 -20 22 -32 14 -32 17 -40 223 -7 189 -15 258 -29
236z m250 -6813 c23 -18 58 -123 113 -343 4 -16 17 -61 28 -100 12 -38 27
-104 36 -145 8 -41 33 -151 55 -245 23 -93 46 -197 51 -230 6 -33 20 -97 30
-142 19 -83 19 -83 -2 -109 l-21 -27 -345 7 c-589 12 -716 17 -724 25 -8 8 34
208 53 253 5 13 19 66 31 118 11 52 29 124 40 160 10 36 29 112 43 170 13 58
40 168 59 245 20 77 44 187 54 245 11 67 24 111 35 122 16 16 37 17 235 12
120 -4 223 -11 229 -16z m12 -2323 c141 -16 195 -35 387 -131 72 -35 134 -64
138 -64 18 0 168 -109 253 -184 179 -160 240 -256 364 -576 28 -74 67 -173 85
-220 18 -47 41 -134 51 -193 21 -124 20 -127 -56 -127 -26 0 -63 -9 -85 -20
-39 -20 -59 -20 -1373 -20 -1034 0 -1338 3 -1355 12 -30 17 -123 37 -177 37
-25 1 -62 4 -82 7 -44 8 -49 28 -20 80 9 17 41 78 70 135 30 57 62 115 73 130
10 15 19 30 19 33 0 3 20 35 45 72 25 36 45 68 45 72 0 3 11 22 24 41 37 56
78 119 112 174 17 27 62 83 100 124 128 139 376 383 433 427 131 100 346 183
521 199 95 10 318 5 428 -8z"/>
</g>
</svg>
